<svg width="24" height="24" viewBox="0 0 24 24" fill="none" xmlns="http://www.w3.org/2000/svg">
<path d="M2.57129 7.99564C2.57129 8.87957 3.51548 9.10055 4.07798 8.52801L8.52776 4.07823C9.11035 3.50568 8.87933 2.57153 7.99539 2.57153H3.48535C2.92285 2.57153 2.57129 2.95323 2.57129 3.49564V7.99564ZM5.16281 6.42868L17.8894 19.1653L19.1651 17.9097L6.43848 5.16305L5.16281 6.42868ZM21.7666 16.3427C21.7666 15.4487 20.8224 15.2378 20.2499 15.8003L15.8001 20.2501C15.2275 20.8327 15.4586 21.7668 16.3425 21.7668H20.8525C21.4151 21.7668 21.7666 21.3751 21.7666 20.8427V16.3427ZM21.7666 7.99564V3.49564C21.7666 2.95323 21.4151 2.57153 20.8525 2.57153H16.3425C15.4586 2.57153 15.2275 3.50568 15.8001 4.07823L20.2499 8.52801C20.8224 9.10055 21.7666 8.87957 21.7666 7.99564ZM6.43848 19.1653L19.1751 6.42868L17.8994 5.16305L5.16281 17.8996L6.43848 19.1653ZM2.57129 16.3427V20.8427C2.57129 21.3751 2.92285 21.7668 3.48535 21.7668H7.99539C8.87933 21.7668 9.11035 20.8327 8.52776 20.2501L4.07798 15.8003C3.51548 15.2378 2.57129 15.4487 2.57129 16.3427Z" fill="#42159D"/>
</svg>
