<?xml version="1.0" encoding="UTF-8"?>
<svg version="1.1" xmlns="http://www.w3.org/2000/svg" width="34" height="34">
<path d="M0 0 C2.47923801 -0.02685095 4.9581884 -0.04676547 7.4375 -0.0625 C8.14455078 -0.07087891 8.85160156 -0.07925781 9.58007812 -0.08789062 C11.38693559 -0.09653588 13.19387603 -0.05220011 15 0 C16 1 16 1 16.09765625 4.37890625 C16.09098369 5.77347077 16.07902532 7.16801743 16.0625 8.5625 C16.05798828 9.27341797 16.05347656 9.98433594 16.04882812 10.71679688 C16.03700864 12.47790013 16.01907263 14.23896036 16 16 C15.01 16 14.02 16 13 16 C12.67 13.03 12.34 10.06 12 7 C8.37 10.63 4.74 14.26 1 18 C0.01 17.67 -0.98 17.34 -2 17 C-0.46356148 13.31930113 1.78150945 11.01224796 4.625 8.25 C5.44226563 7.45078125 6.25953125 6.6515625 7.1015625 5.828125 C7.72804688 5.22484375 8.35453125 4.6215625 9 4 C6.03 3.67 3.06 3.34 0 3 C0 2.01 0 1.02 0 0 Z " fill="#41149C" transform="translate(10,8)"/>
</svg>
