<svg width="23" height="18" viewBox="0 0 23 18" fill="none" xmlns="http://www.w3.org/2000/svg">
<path d="M14.0544 17.666H20.0279C21.3419 17.666 22.2206 16.8276 22.2206 15.57V2.69605C22.2206 1.43848 21.3419 0.600098 20.0279 0.600098H14.0544C12.7404 0.600098 11.8537 1.43848 11.8537 2.69605V15.57C11.8537 16.8276 12.7404 17.666 14.0544 17.666ZM14.2156 16.3681C13.5385 16.3681 13.1516 16.0053 13.1516 15.3604V2.90564C13.1516 2.26074 13.5385 1.89798 14.2156 1.89798H19.8586C20.5358 1.89798 20.9227 2.26074 20.9227 2.90564V15.3604C20.9227 16.0053 20.5358 16.3681 19.8586 16.3681H14.2156ZM1.06756 15.7474C1.48675 15.7474 1.78502 15.4572 1.78502 15.038V13.8126C1.78502 10.8139 3.61495 9.84647 5.9608 9.84647H6.49286L8.72586 9.7739V9.3225L6.53316 11.3217L5.64641 12.0795C5.461 12.2327 5.41263 12.4342 5.41263 12.6277C5.41263 13.0227 5.71896 13.3209 6.11397 13.3209C6.30744 13.3209 6.47673 13.2484 6.65408 13.0791L10.064 9.67718C10.2253 9.52405 10.314 9.33859 10.314 9.13711C10.314 8.93555 10.2253 8.75016 10.064 8.59696L6.63795 5.17895C6.47673 5.01773 6.30744 4.95323 6.11397 4.95323C5.71896 4.95323 5.41263 5.24344 5.41263 5.64651C5.41263 5.83998 5.461 6.04152 5.64641 6.19468L6.53316 6.95245L8.72586 8.95165V8.50025L6.49286 8.42767H5.9608C3.09902 8.42767 0.350098 9.7417 0.350098 13.8126V15.038C0.350098 15.4572 0.648368 15.7474 1.06756 15.7474Z" fill="#42159D"/>
</svg>
