<svg width="26" height="26" viewBox="0 0 26 26" fill="none" xmlns="http://www.w3.org/2000/svg">
    <path d="M9.93447 14.7744C9.93447 14.6827 9.98135 14.6002 10.0563 14.5085L13.9271 9.74933C14.2176 9.38254 14.705 9.63013 14.5363 10.0794L13.2616 13.4265H15.6516C15.8297 13.4265 15.989 13.564 15.989 13.7291C15.989 13.8208 15.9421 13.9216 15.8578 14.0041L11.9964 18.7541C11.7058 19.1209 11.2091 18.8733 11.3778 18.4332L12.6618 15.077H10.2625C10.0844 15.077 9.93447 14.9486 9.93447 14.7744ZM4.89214 21.4317H21.1063C23.0745 21.4317 24.0492 20.4872 24.0492 18.5982V9.73099C24.0492 7.84201 23.0745 6.89752 21.1063 6.89752H19.8129V5.66877C19.8129 4.97186 19.4005 4.55005 18.6789 4.55005H15.914C15.2017 4.55005 14.7894 4.97186 14.7894 5.66877V6.89752H11.2184V5.66877C11.2184 4.97186 10.8061 4.55005 10.0844 4.55005H7.31957C6.59791 4.55005 6.19489 4.97186 6.19489 5.66877V6.89752H4.89214C2.93332 6.89752 1.94922 7.84201 1.94922 9.73099V18.5982C1.94922 20.4872 2.93332 21.4317 4.89214 21.4317Z" fill="#42159D"/>
</svg>
