<svg width="22" height="21" viewBox="0 0 22 21" fill="none" xmlns="http://www.w3.org/2000/svg">
<path d="M1.759 12.2155C2.34159 12.2155 2.80364 11.7534 2.80364 11.1808C2.80364 10.5982 2.34159 10.1362 1.759 10.1362C1.17641 10.1362 0.714355 10.5982 0.714355 11.1808C0.714355 11.7534 1.17641 12.2155 1.759 12.2155ZM4.12954 5.17417C4.71212 5.17417 5.17417 4.70208 5.17417 4.12954C5.17417 3.54695 4.71212 3.08489 4.12954 3.08489C3.55699 3.08489 3.08489 3.54695 3.08489 4.12954C3.08489 4.70208 3.55699 5.17417 4.12954 5.17417ZM11.191 2.80364C11.7634 2.80364 12.2255 2.34159 12.2255 1.759C12.2255 1.18645 11.7634 0.714355 11.191 0.714355C10.6084 0.714355 10.1463 1.18645 10.1463 1.759C10.1463 2.34159 10.6084 2.80364 11.191 2.80364ZM18.2422 5.17417C18.8248 5.17417 19.2869 4.70208 19.2869 4.12954C19.2869 3.54695 18.8248 3.08489 18.2422 3.08489C17.6596 3.08489 17.1976 3.54695 17.1976 4.12954C17.1976 4.70208 17.6596 5.17417 18.2422 5.17417ZM20.6229 12.2155C21.1954 12.2155 21.6574 11.7534 21.6574 11.1808C21.6574 10.5982 21.1954 10.1362 20.6229 10.1362C20.0403 10.1362 19.5782 10.5982 19.5782 11.1808C19.5782 11.7534 20.0403 12.2155 20.6229 12.2155ZM18.9052 19.6084C19.3472 19.6084 19.7289 19.2467 19.7289 18.8048C19.7289 18.3527 19.3472 17.9811 18.9052 17.9811H17.6798V11.3215C17.6798 7.65521 14.8472 4.82262 11.191 4.82262C7.52462 4.82262 4.71212 7.65521 4.71212 11.3215V17.9811H3.46659C3.02462 17.9811 2.67306 18.3527 2.67306 18.8048C2.67306 19.2467 3.02462 19.6084 3.46659 19.6084H18.9052ZM12.0346 11.3517V17.9811H10.3572V11.3517C10.3572 10.8896 10.7289 10.5079 11.191 10.5079C11.653 10.5079 12.0346 10.8896 12.0346 11.3517Z" fill="#42159D"/>
</svg>
