<svg width="24" height="18" viewBox="0 0 24 18" fill="none" xmlns="http://www.w3.org/2000/svg">
<g clip-path="url(#clip0_201_469)">
<path d="M2.67832 10.962H8.7422C10.1619 10.962 10.9891 10.1534 10.9891 8.75266V2.68872C10.9891 1.28792 10.1619 0.479396 8.7422 0.479396H2.67832C1.26812 0.479396 0.450195 1.27851 0.450195 2.68872V8.75266C0.450195 10.1629 1.26812 10.962 2.67832 10.962ZM14.9001 11.0842H21.0863C22.5529 11.0842 23.3896 10.2569 23.3896 8.82783V2.62291C23.3896 1.1845 22.5529 0.357178 21.0863 0.357178H14.9001C13.4429 0.357178 12.6062 1.1845 12.6062 2.62291V8.82783C12.6062 10.2569 13.4429 11.0842 14.9001 11.0842ZM14.919 9.59871C14.3643 9.59871 14.0916 9.32611 14.0916 8.76204V2.67932C14.0916 2.11524 14.3643 1.8426 14.919 1.8426H21.0674C21.641 1.8426 21.9042 2.11524 21.9042 2.67932V8.76204C21.9042 9.32611 21.641 9.59871 21.0674 9.59871H14.919ZM1.1647 14.4781C0.779244 14.4781 0.450195 14.8166 0.450195 15.2396C0.450195 15.6626 0.779244 15.9917 1.1647 15.9917H4.20135V14.4781H1.1647ZM5.83719 17.4959C7.07818 17.4959 8.09353 16.4806 8.09353 15.2396C8.09353 13.9892 7.07818 12.9739 5.83719 12.9739C4.59621 12.9739 3.58086 13.9892 3.58086 15.2396C3.58086 16.4806 4.59621 17.4959 5.83719 17.4959ZM5.83719 16.3396C5.21671 16.3396 4.73723 15.8507 4.73723 15.2302C4.73723 14.6097 5.21671 14.1302 5.83719 14.1302C6.44828 14.1302 6.93716 14.6097 6.93716 15.2302C6.93716 15.8507 6.44828 16.3396 5.83719 16.3396ZM7.33201 14.4781V15.9917H22.6281C23.0512 15.9917 23.3896 15.6626 23.3896 15.2396C23.3896 14.8166 23.0512 14.4781 22.6281 14.4781H7.33201Z" fill="#42159D"/>
</g>
<defs>
<clipPath id="clip0_201_469">
<rect width="22.9394" height="17.496" fill="white" transform="translate(0.450195)"/>
</clipPath>
</defs>
</svg>
