<svg width="23" height="20" viewBox="0 0 23 20" fill="none" xmlns="http://www.w3.org/2000/svg">
<path d="M0.856934 18.4709C0.856934 18.953 1.17836 19.2644 1.66051 19.2644H21.6393C22.0812 19.2644 22.4529 18.9128 22.4529 18.4609C22.4529 18.0189 22.0812 17.6573 21.6393 17.6573H2.75537C2.54443 17.6573 2.47412 17.587 2.47412 17.3761V1.49546C2.47412 1.06355 2.11251 0.691895 1.67055 0.691895C1.21854 0.691895 0.856934 1.06355 0.856934 1.49546V18.4709ZM1.91162 12.2232L8.37032 8.48654L13.021 12.4742L21.2877 7.55238L20.655 6.52783L13.1014 11.0278L8.47077 7.0602L1.91162 10.847V12.2232ZM8.23975 9.84256C9.22412 9.84256 10.0277 9.039 10.0277 8.05462C10.0277 7.07024 9.22412 6.27672 8.23975 6.27672C7.25537 6.27672 6.4518 7.07024 6.4518 8.05462C6.4518 9.039 7.25537 9.84256 8.23975 9.84256ZM12.9808 13.529C13.9652 13.529 14.7588 12.7254 14.7588 11.741C14.7588 10.7566 13.9652 9.96307 12.9808 9.96307C11.9964 9.96307 11.1929 10.7566 11.1929 11.741C11.1929 12.7254 11.9964 13.529 12.9808 13.529ZM20.5545 8.95864C21.5388 8.95864 22.3424 8.15507 22.3424 7.17069C22.3424 6.18631 21.5388 5.38274 20.5545 5.38274C19.5701 5.38274 18.7665 6.18631 18.7665 7.17069C18.7665 8.15507 19.5701 8.95864 20.5545 8.95864Z" fill="#42159D"/>
</svg>
