<svg width="24" height="24" viewBox="0 0 24 24" fill="none" xmlns="http://www.w3.org/2000/svg">
<g clip-path="url(#clip0_201_480)">
<path d="M3.43199 11.9599C3.43199 11.0458 3.57262 10.1619 3.83378 9.34828L2.25677 8.68533C1.91525 9.71993 1.71436 10.8148 1.71436 11.9599C1.71436 13.0949 1.91525 14.1998 2.26681 15.2344L3.83378 14.5715C3.57262 13.7579 3.43199 12.8739 3.43199 11.9599ZM8.05252 4.34605L7.40967 2.79917C5.42083 3.7936 3.78355 5.43088 2.78914 7.41971L4.3561 8.07262C5.15967 6.47552 6.46547 5.16971 8.05252 4.34605ZM11.9498 3.42195C12.8639 3.42195 13.7479 3.56257 14.5815 3.83378L15.2244 2.26681C14.1898 1.91525 13.0849 1.71436 11.9498 1.71436C10.8148 1.71436 9.69985 1.91525 8.66525 2.26681L9.32819 3.83378C10.1519 3.56257 11.0358 3.42195 11.9498 3.42195ZM19.5637 8.06257L21.1206 7.41971C20.1162 5.43088 18.4789 3.7936 16.49 2.78914L15.8472 4.34605C17.4342 5.15967 18.7501 6.46547 19.5637 8.06257ZM20.4979 11.9599C20.4979 12.8739 20.3572 13.7579 20.096 14.5815L21.653 15.2445C22.0046 14.2099 22.2054 13.0949 22.2054 11.9599C22.2054 10.8148 22.0046 9.70989 21.653 8.67529L20.086 9.33824C20.3572 10.1619 20.4979 11.0458 20.4979 11.9599ZM15.8472 19.5637L16.49 21.1306C18.4889 20.1262 20.1262 18.4889 21.1106 16.5001L19.5737 15.8572C18.7601 17.4543 17.4443 18.7501 15.8472 19.5637ZM11.9599 20.4979C11.0358 20.4979 10.1519 20.3572 9.32819 20.086L8.67529 21.653C9.70989 22.0046 10.8248 22.2054 11.9599 22.2054C13.0949 22.2054 14.1998 22.0046 15.2244 21.663L14.5715 20.096C13.7479 20.3572 12.8739 20.4979 11.9599 20.4979ZM4.3561 15.8572L2.79917 16.5001C3.80364 18.4889 5.42083 20.1262 7.40967 21.1206L8.05252 19.5536C6.46547 18.74 5.15967 17.4443 4.3561 15.8572ZM11.9398 18.971C15.8472 18.971 18.961 15.8572 18.951 11.9599C18.941 8.06257 15.827 4.94873 11.9298 4.94873C8.03243 4.94873 4.93869 8.05252 4.93869 11.9599C4.93869 15.8672 8.04248 18.971 11.9398 18.971Z" fill="#42159D"/>
</g>
<defs>
<clipPath id="clip0_201_480">
<rect width="20.491" height="20.5011" fill="white" transform="translate(1.71436 1.71436)"/>
</clipPath>
</defs>
</svg>
