<svg width="24" height="24" viewBox="0 0 24 24" fill="none" xmlns="http://www.w3.org/2000/svg">
<path fill-rule="evenodd" clip-rule="evenodd" d="M7.5363 6.26365C7.88777 6.61512 7.88777 7.18497 7.5363 7.53644L3.07269 12L7.5363 16.4637C7.88777 16.8151 7.88777 17.385 7.5363 17.7364C7.18483 18.0879 6.61498 18.0879 6.26351 17.7364L1.16351 12.6364C0.812034 12.285 0.812034 11.7151 1.16351 11.3637L6.26351 6.26365C6.61498 5.91218 7.18483 5.91218 7.5363 6.26365ZM16.4635 6.26365C16.815 5.91218 17.3848 5.91218 17.7363 6.26365L22.8363 11.3637C23.1878 11.7151 23.1878 12.285 22.8363 12.6364L17.7363 17.7364C17.3848 18.0879 16.815 18.0879 16.4635 17.7364C16.112 17.385 16.112 16.8151 16.4635 16.4637L20.9271 12L16.4635 7.53644C16.112 7.18497 16.112 6.61512 16.4635 6.26365Z" fill="#42159D"/>
<path fill-rule="evenodd" clip-rule="evenodd" d="M13.6528 2.41313C14.1426 2.49759 14.4713 2.96314 14.3868 3.45296L11.3868 20.853C11.3024 21.3428 10.8368 21.6714 10.347 21.587C9.85716 21.5025 9.52853 21.037 9.61299 20.5471L12.613 3.14713C12.6974 2.6573 13.163 2.32868 13.6528 2.41313Z" fill="#42159D"/>
</svg>
