<svg width="24" height="24" viewBox="0 0 24 24" fill="none" xmlns="http://www.w3.org/2000/svg">
<path d="M8.62637 19.7085H17.2799C18.9568 19.7085 19.7953 18.8619 19.7953 17.1524V7.27779C19.7953 5.5764 18.9568 4.72163 17.2799 4.72163H9.48928L10.8244 6.03228H17.2066C18.0532 6.03228 18.4847 6.48001 18.4847 7.29408V17.1361C18.4847 17.9502 18.0532 18.3979 17.2147 18.3979H8.6915C7.85301 18.3979 7.41342 17.9502 7.41342 17.1361V11.3237H6.10278V17.1524C6.10278 18.8619 6.9494 19.7085 8.62637 19.7085ZM9.86375 9.52463H15.8553C16.1402 9.52463 16.36 9.30484 16.36 9.01989C16.36 8.74313 16.1402 8.52334 15.8553 8.52334H9.86375C9.56255 8.52334 9.35089 8.74313 9.35089 9.01989C9.35089 9.30484 9.56255 9.52463 9.86375 9.52463ZM9.86375 12.7157H15.8553C16.1402 12.7157 16.36 12.4878 16.36 12.2029C16.36 11.9261 16.1402 11.7144 15.8553 11.7144H9.86375C9.56255 11.7144 9.35089 11.9261 9.35089 12.2029C9.35089 12.4878 9.56255 12.7157 9.86375 12.7157ZM9.86375 15.8987H15.8553C16.1402 15.8987 16.36 15.6871 16.36 15.4103C16.36 15.1254 16.1402 14.8974 15.8553 14.8974H9.86375C9.56255 14.8974 9.35089 15.1254 9.35089 15.4103C9.35089 15.6871 9.56255 15.8987 9.86375 15.8987ZM3.75013 8.01859C3.74199 8.32793 4.11646 8.4338 4.31997 8.23026L5.56549 6.98473L6.95754 10.4201C7.02267 10.5748 7.18548 10.648 7.33201 10.591L8.14607 10.2654C8.28446 10.2003 8.34145 10.0293 8.26818 9.87467L6.81101 6.49629L8.56125 6.42303C8.87059 6.40674 9.02526 6.11368 8.80546 5.87761L4.35254 1.30257C4.14902 1.09906 3.83154 1.21303 3.8234 1.51423L3.75013 8.01859Z" fill="#42159D"/>
</svg>
