<svg width="24" height="24" viewBox="0 0 24 24" fill="none" xmlns="http://www.w3.org/2000/svg">
<g clip-path="url(#clip0_201_498)">
<path d="M4.27574 17.9197L5.08936 19.3059L12.2512 15.7099L19.413 19.3059L20.2267 17.9197L13.0648 14.3237V5.84608H11.4476V14.3237L4.27574 17.9197ZM1.73444 19.3561C1.73444 19.768 1.9052 20.0693 2.26681 20.2702L4.27574 21.4454C4.5369 21.6061 4.71771 21.6363 5.06926 21.4354L7.02797 20.3003C7.38958 20.0994 7.45989 19.9287 7.44985 19.5972L7.45989 17.2668C7.45989 16.8651 7.27909 16.5737 6.93757 16.3729L4.9186 15.1977C4.65743 15.057 4.43645 15.0068 4.09493 15.1977L2.1061 16.3528C1.76458 16.5436 1.71436 16.7446 1.71436 17.0258L1.73444 19.3561ZM16.9922 19.6072C16.9822 19.9387 17.0525 20.1094 17.4141 20.3104L19.3729 21.4454C19.7244 21.6463 19.9052 21.6162 20.1663 21.4554L22.1753 20.2803C22.5369 20.0794 22.7077 19.778 22.7077 19.3662L22.7277 17.0358C22.7277 16.7546 22.6775 16.5537 22.336 16.3628L20.3472 15.2077C20.0056 15.0168 19.7846 15.067 19.5235 15.2077L17.5046 16.3829C17.163 16.5838 16.9822 16.8751 16.9822 17.2768L16.9922 19.6072ZM9.6898 7.56372L11.7188 8.7289C12.0603 8.91975 12.3918 8.91975 12.7334 8.7289L14.7624 7.56372C15.0436 7.40301 15.1641 7.25234 15.1641 6.84051V4.57042C15.1641 4.16863 15.0436 4.02801 14.7824 3.87734L12.7534 2.7222C12.3918 2.52131 12.0503 2.52131 11.6987 2.7222L9.66971 3.87734C9.41859 4.01796 9.27797 4.16863 9.27797 4.57042V6.84051C9.27797 7.25234 9.42864 7.41305 9.6898 7.56372Z" fill="#42159D"/>
</g>
<defs>
<clipPath id="clip0_201_498">
<rect width="21.0134" height="19.0547" fill="white" transform="translate(1.71436 2.57153)"/>
</clipPath>
</defs>
</svg>
