<svg width="24" height="24" viewBox="0 0 24 24" fill="none" xmlns="http://www.w3.org/2000/svg">
<g clip-path="url(#clip0_201_450)">
<path d="M4.4423 21.6451C5.11695 21.6451 5.65473 21.1073 5.65473 20.4326C5.65473 19.758 5.10718 19.2202 4.4423 19.2202C3.76764 19.2202 3.22987 19.7677 3.22987 20.4326C3.22987 21.1171 3.77742 21.6451 4.4423 21.6451ZM1.37211 14.2042C2.04677 14.2042 2.58454 13.647 2.58454 12.982C2.58454 12.2976 2.02721 11.7696 1.37211 11.7696C0.697452 11.7696 0.149902 12.3171 0.149902 12.982C0.149902 13.6567 0.70723 14.2042 1.37211 14.2042ZM4.4423 6.76345C5.11695 6.76345 5.65473 6.2159 5.65473 5.55101C5.65473 4.86658 5.10718 4.33858 4.4423 4.33858C3.76764 4.33858 3.22987 4.87635 3.22987 5.55101C3.22987 6.22568 3.77742 6.76345 4.4423 6.76345ZM11.9418 3.63459C12.6164 3.63459 13.1542 3.08704 13.1542 2.41238C13.1542 1.73772 12.6067 1.19995 11.9418 1.19995C11.2573 1.19995 10.7293 1.7475 10.7293 2.41238C10.7293 3.09682 11.2671 3.63459 11.9418 3.63459ZM19.4315 6.74389C20.1061 6.74389 20.6439 6.19634 20.6439 5.53146C20.6439 4.84702 20.0963 4.31903 19.4315 4.31903C18.7471 4.31903 18.2092 4.8568 18.2092 5.53146C18.2092 6.20612 18.7568 6.74389 19.4315 6.74389ZM22.5114 14.2042C23.1861 14.2042 23.7336 13.647 23.7336 12.982C23.7336 12.2976 23.1763 11.7696 22.5114 11.7696C21.827 11.7696 21.2892 12.3171 21.2892 12.982C21.2892 13.6567 21.8465 14.2042 22.5114 14.2042ZM19.4217 21.6548C20.0963 21.6548 20.6341 21.1171 20.6341 20.4424C20.6341 19.7677 20.0865 19.23 19.4217 19.23C18.7372 19.23 18.1995 19.7775 18.1995 20.4424C18.1995 21.1268 18.7471 21.6548 19.4217 21.6548ZM11.9418 20.1001C15.8626 20.1001 19.0501 16.9225 19.0501 12.982C19.0501 9.30564 16.2537 6.28434 12.6653 5.92257L12.6556 13.1287C12.6556 13.5198 12.3133 13.862 11.9418 13.8523C11.5116 13.8327 11.2084 13.5296 11.2084 13.1091V5.92257C7.62981 6.28434 4.82363 9.30564 4.82363 12.982C4.82363 16.9322 8.02092 20.1001 11.9418 20.1001Z" fill="#42159D"/>
</g>
<defs>
<clipPath id="clip0_201_450">
<rect width="23.5837" height="21.99" fill="white" transform="translate(0.149902 1.19995)"/>
</clipPath>
</defs>
</svg>
