<svg width="23" height="21" viewBox="0 0 23 21" fill="none" xmlns="http://www.w3.org/2000/svg">
<g clip-path="url(#clip0_201_684)">
<path d="M8.48082 20.6831C8.66162 20.6831 8.7922 20.5525 8.82234 20.3617C9.14376 17.6798 9.27434 17.6094 12.0065 17.1675C12.2174 17.1273 12.348 17.0268 12.348 16.826C12.348 16.6351 12.2174 16.5146 12.0467 16.4844C9.29443 15.9622 9.14376 15.9722 8.82234 13.2903C8.7922 13.0994 8.66162 12.9688 8.48082 12.9688C8.28997 12.9688 8.15939 13.0994 8.1393 13.2802C7.78774 16.0023 7.69734 16.0927 4.91497 16.4844C4.74421 16.5046 4.61363 16.6351 4.61363 16.826C4.61363 17.0168 4.74421 17.1273 4.91497 17.1675C7.69734 17.6998 7.77769 17.6998 8.1393 20.3818C8.15939 20.5525 8.28997 20.6831 8.48082 20.6831ZM3.70961 11.9342C3.85024 11.9342 3.9306 11.8338 3.96072 11.7032C4.30224 9.79476 4.31229 9.67416 6.33126 9.33267C6.46184 9.3025 6.56229 9.22217 6.56229 9.08154C6.56229 8.94092 6.46184 8.85052 6.33126 8.83043C4.31229 8.47886 4.30224 8.35833 3.96072 6.44985C3.9306 6.31926 3.85024 6.22886 3.70961 6.22886C3.56898 6.22886 3.48863 6.31926 3.4585 6.44985C3.11698 8.35833 3.10693 8.47886 1.08796 8.83043C0.95738 8.85052 0.856934 8.94092 0.856934 9.08154C0.856934 9.22217 0.95738 9.3025 1.08796 9.33267C3.10693 9.67416 3.11698 9.79476 3.4585 11.7032C3.48863 11.8338 3.56898 11.9342 3.70961 11.9342ZM9.21408 5.50565C9.33461 5.50565 9.39488 5.43534 9.41497 5.32485C9.75648 3.71771 9.73642 3.65743 11.4239 3.31592C11.5344 3.29583 11.6148 3.22552 11.6148 3.11502C11.6148 2.99449 11.5344 2.92417 11.4239 2.90409C9.73642 2.56257 9.75648 2.5023 9.41497 0.905203C9.39488 0.794713 9.33461 0.714355 9.21408 0.714355C9.09354 0.714355 9.03327 0.794713 9.01318 0.905203C8.67167 2.5023 8.69175 2.56257 7.00426 2.90409C6.89376 2.92417 6.81341 2.99449 6.81341 3.11502C6.81341 3.22552 6.89376 3.29583 7.00426 3.31592C8.69175 3.65743 8.67167 3.71771 9.01318 5.32485C9.03327 5.43534 9.09354 5.50565 9.21408 5.50565ZM17.511 9.05141C17.6516 9.05141 17.7319 8.961 17.7621 8.83043C18.1036 6.92195 18.1136 6.80141 20.1326 6.44985C20.2732 6.42976 20.3636 6.33936 20.3636 6.19873C20.3636 6.05811 20.2732 5.97774 20.1326 5.94762C18.1136 5.6061 18.1036 5.48556 17.7621 3.57708C17.7319 3.4465 17.6516 3.34605 17.511 3.34605C17.3703 3.34605 17.29 3.4465 17.2598 3.57708C16.9183 5.48556 16.9083 5.6061 14.8893 5.94762C14.7588 5.97774 14.6583 6.05811 14.6583 6.19873C14.6583 6.33936 14.7588 6.42976 14.8893 6.44985C16.9083 6.80141 16.9183 6.92195 17.2598 8.83043C17.29 8.961 17.3703 9.05141 17.511 9.05141ZM20.8659 20.5224C21.2877 20.9543 22.011 20.9543 22.4127 20.5224C22.8246 20.0805 22.8246 19.3974 22.4127 18.9755L12.8603 9.39293C12.4384 8.97105 11.7152 8.97105 11.3134 9.39293C10.8915 9.83487 10.9016 10.528 11.3134 10.9498L20.8659 20.5224ZM15.0198 13.6217L12.0768 10.6686C11.896 10.4878 11.8357 10.2869 12.0165 10.1162C12.1672 9.95538 12.3781 9.99558 12.569 10.1865L15.5221 13.1396L15.0198 13.6217Z" fill="#42159D"/>
</g>
<defs>
<clipPath id="clip0_201_684">
<rect width="21.8647" height="20.1797" fill="white" transform="translate(0.856934 0.714355)"/>
</clipPath>
</defs>
</svg>
