<svg width="20" height="20" viewBox="0 0 20 20" fill="none" xmlns="http://www.w3.org/2000/svg">
<path d="M1.9363 0.663506C1.58483 0.312034 1.01498 0.312034 0.663506 0.663506C0.312034 1.01498 0.312034 1.58483 0.663506 1.9363L4.52711 5.7999H1.2999C0.802846 5.7999 0.399902 6.20285 0.399902 6.6999C0.399902 7.19696 0.802846 7.5999 1.2999 7.5999H6.6999C7.19696 7.5999 7.5999 7.19696 7.5999 6.6999V1.2999C7.5999 0.802846 7.19696 0.399902 6.6999 0.399902C6.20285 0.399902 5.7999 0.802846 5.7999 1.2999V4.52711L1.9363 0.663506Z" fill="#42159D"/>
<path d="M14.1999 1.2999C14.1999 0.802846 13.797 0.399902 13.2999 0.399902C12.8028 0.399902 12.3999 0.802846 12.3999 1.2999V6.6999C12.3999 7.19696 12.8028 7.5999 13.2999 7.5999H18.6999C19.197 7.5999 19.5999 7.19696 19.5999 6.6999C19.5999 6.20285 19.197 5.7999 18.6999 5.7999H15.4727L19.3363 1.9363C19.6878 1.58483 19.6878 1.01498 19.3363 0.663506C18.9848 0.312034 18.415 0.312034 18.0635 0.663506L14.1999 4.52711V1.2999Z" fill="#42159D"/>
<path d="M1.9363 19.3363L5.7999 15.4727V18.6999C5.7999 19.197 6.20285 19.5999 6.6999 19.5999C7.19696 19.5999 7.5999 19.197 7.5999 18.6999V13.2999C7.5999 12.8028 7.19696 12.3999 6.6999 12.3999H1.2999C0.802846 12.3999 0.399902 12.8028 0.399902 13.2999C0.399902 13.797 0.802846 14.1999 1.2999 14.1999H4.52711L0.663506 18.0635C0.312034 18.415 0.312034 18.9848 0.663506 19.3363C1.01498 19.6878 1.58483 19.6878 1.9363 19.3363Z" fill="#42159D"/>
<path d="M14.1999 15.4727L18.0635 19.3363C18.415 19.6878 18.9848 19.6878 19.3363 19.3363C19.6878 18.9848 19.6878 18.415 19.3363 18.0635L15.4727 14.1999H18.6999C19.197 14.1999 19.5999 13.797 19.5999 13.2999C19.5999 12.8028 19.197 12.3999 18.6999 12.3999H13.2999C12.8028 12.3999 12.3999 12.8028 12.3999 13.2999V18.6999C12.3999 19.197 12.8028 19.5999 13.2999 19.5999C13.797 19.5999 14.1999 19.197 14.1999 18.6999V15.4727Z" fill="#42159D"/>
</svg>
