<svg width="24" height="24" viewBox="0 0 24 24" fill="none" xmlns="http://www.w3.org/2000/svg">
<g clip-path="url(#clip0_201_459)">
<path d="M6.01166 22.572C6.54342 22.572 6.80363 22.2892 6.89415 21.8253L9.13431 10.4208L8.00291 11.3372H16.4431L15.3117 10.4208L17.5519 21.8253C17.6424 22.2892 17.9026 22.572 18.4344 22.572C19.1924 22.572 19.4527 22.0516 19.3281 21.4405L17.2124 10.6697C17.0767 9.95693 16.477 9.43649 15.7869 9.43649H8.67044C7.98028 9.43649 7.38065 9.95693 7.24488 10.6697L5.12917 21.4405C5.00472 22.0516 5.27626 22.572 6.01166 22.572ZM8.42153 10.3529H16.0358L13.2186 1.94667C13.0489 1.47149 12.7321 1.19995 12.2456 1.19995C11.7365 1.19995 11.3858 1.47149 11.2274 1.94667L8.42153 10.3529Z" fill="#42159D"/>
</g>
<defs>
<clipPath id="clip0_201_459">
<rect width="14.2578" height="21.372" fill="white" transform="translate(5.1001 1.19995)"/>
</clipPath>
</defs>
</svg>
