<svg width="26" height="26" viewBox="0 0 26 26" fill="none" xmlns="http://www.w3.org/2000/svg">
    <path fill-rule="evenodd" clip-rule="evenodd" d="M7.31144 14.625C9.55512 14.625 11.3739 16.4438 11.3739 18.6875C11.3739 21.8286 8.82757 24.375 5.68644 24.375C3.57777 24.3749 1.73799 23.2266 0.756756 21.5254C0.607103 21.2657 0.613019 20.9449 0.771405 20.6904C0.929857 20.4359 1.2154 20.2888 1.51457 20.3086C1.55082 20.311 1.58729 20.3125 1.62394 20.3125C2.52141 20.3125 3.24894 19.585 3.24894 18.6875C3.24894 16.4439 5.06791 14.6252 7.31144 14.625ZM10.538 10.5537C12.7743 11.4415 14.556 13.2238 15.4443 15.46C14.7678 15.9543 14.0606 16.4092 13.3241 16.8184L12.7782 17.1211C12.2402 15.24 10.7599 13.7579 8.87883 13.2197L9.18058 12.6758C9.58987 11.9391 10.0434 11.2305 10.538 10.5537ZM22.3144 1.625C23.4519 1.625 24.3738 2.54708 24.3739 3.68457C24.3739 4.09116 24.2537 4.48882 24.0282 4.82715L20.3603 10.3301C19.4196 11.741 18.3074 13.0212 17.0566 14.1484C15.9885 11.8593 14.1388 10.0102 11.8495 8.94238C12.9771 7.69118 14.2587 6.57947 15.6698 5.63867L21.1718 1.9707C21.5101 1.74519 21.9078 1.62501 22.3144 1.625Z" fill="#42159D"/>
</svg>
