<svg width="18" height="24" viewBox="0 0 18 24" fill="none" xmlns="http://www.w3.org/2000/svg">
<path d="M3.21107 23.4877H14.4309C16.0983 23.4877 17.2133 22.4231 17.2133 20.836V3.51901C17.2133 1.93196 16.0983 0.857178 14.4309 0.857178H3.21107C1.54367 0.857178 0.428711 1.93196 0.428711 3.51901V20.836C0.428711 22.4231 1.54367 23.4877 3.21107 23.4877ZM3.41197 21.8705C2.54813 21.8705 2.0459 21.3884 2.0459 20.5648V3.79022C2.0459 2.96655 2.54813 2.47437 3.41197 2.47437H14.2301C15.0839 2.47437 15.5961 2.96655 15.5961 3.79022V20.5648C15.5961 21.3884 15.0839 21.8705 14.2301 21.8705H3.41197ZM4.96889 10.1083H12.6832C13.2156 10.1083 13.5771 9.75672 13.5771 9.19423V7.02459C13.5771 6.46209 13.2156 6.11053 12.6832 6.11053H4.96889C4.43652 6.11053 4.07492 6.46209 4.07492 7.02459V9.19423C4.07492 9.75672 4.43652 10.1083 4.96889 10.1083ZM4.96889 18.2143H12.6832C13.2156 18.2143 13.5771 17.8527 13.5771 17.3003V15.1205C13.5771 14.5681 13.2156 14.2065 12.6832 14.2065H4.96889C4.43652 14.2065 4.07492 14.5681 4.07492 15.1205V17.3003C4.07492 17.8527 4.43652 18.2143 4.96889 18.2143Z" fill="#42159D"/>
</svg>
