<svg width="28" height="34" viewBox="0 0 28 34" fill="none" xmlns="http://www.w3.org/2000/svg">
    <path d="M13.6374 33.6598C13.9041 33.6598 14.3209 33.5596 14.7377 33.343C24.2238 28.3748 27.2748 25.8907 27.2748 19.9057V7.33528C27.2748 5.61811 26.5411 5.06795 25.1408 4.48443C23.1902 3.6842 16.9551 1.41687 15.0211 0.750004C14.571 0.59996 14.1042 0.516602 13.6374 0.516602C13.1706 0.516602 12.7038 0.616632 12.2703 0.750004C10.3197 1.38352 4.08453 3.70087 2.13396 4.48443C0.750222 5.05127 0 5.61811 0 7.33528V19.9057C0 25.8907 3.21762 28.0914 12.537 33.343C12.9705 33.5764 13.3706 33.6598 13.6374 33.6598ZM6.11847 17.6383C6.11847 17.4382 6.2185 17.1881 6.40189 16.9715L15.8213 5.1513C16.5382 4.25104 17.7386 4.85122 17.3052 5.96821L14.2042 14.304H20.0226C20.4727 14.304 20.8061 14.6207 20.8061 15.071C20.8061 15.271 20.7061 15.5211 20.5228 15.7378L11.1033 27.5579C10.3864 28.4582 9.20272 27.858 9.61951 26.7577L12.7371 18.4052H6.90203C6.46858 18.4052 6.11847 18.0884 6.11847 17.6383Z" fill="#42159D"/>
</svg>
