<svg width="24" height="16" viewBox="0 0 24 16" fill="none" xmlns="http://www.w3.org/2000/svg">
<path d="M0 8.07495C0 9.7431 1.17753 10.659 2.50225 10.659C3.0583 10.659 3.47535 10.5036 3.97416 10.1928C4.44026 9.90666 4.77553 10.0783 4.77553 10.4791V13.5046C4.77553 15.1156 5.62597 15.9415 7.25323 15.9415H9.43656C9.82907 15.9415 10.0008 15.6143 9.72279 15.1483C9.4039 14.6494 9.2485 14.2324 9.2485 13.6764C9.2485 12.3517 10.1725 11.1741 11.8407 11.1741C13.5089 11.1741 14.4247 12.3517 14.4247 13.6764C14.4247 14.2324 14.2693 14.6494 13.9586 15.1483C13.6806 15.6143 13.8441 15.9415 14.2449 15.9415H16.4282C18.0554 15.9415 18.9059 15.1156 18.9059 13.5046V10.4791C18.9059 10.0783 19.2411 9.90666 19.6991 10.1928C20.206 10.5036 20.6231 10.659 21.171 10.659C22.5039 10.659 23.6814 9.7431 23.6814 8.07495C23.6814 6.39857 22.5039 5.48272 21.171 5.48272C20.6231 5.48272 20.206 5.63809 19.6991 5.94882C19.2411 6.23503 18.9059 6.0633 18.9059 5.66262V2.63703C18.9059 1.03428 18.0554 0.200195 16.4282 0.200195H14.2449C13.8441 0.200195 13.6806 0.535464 13.9586 1.00157C14.2693 1.50038 14.4247 1.91743 14.4247 2.47348C14.4247 3.7982 13.5089 4.97573 11.8407 4.97573C10.1725 4.97573 9.2485 3.7982 9.2485 2.47348C9.2485 1.91743 9.4039 1.50038 9.72279 1.00157C10.0008 0.535464 9.82907 0.200195 9.43656 0.200195H7.25323C5.62597 0.200195 4.77553 1.03428 4.77553 2.63703V5.66262C4.77553 6.0633 4.44026 6.23503 3.97416 5.94882C3.47535 5.63809 3.0583 5.48272 2.50225 5.48272C1.17753 5.48272 0 6.39857 0 8.07495Z" fill="#42159D"/>
</svg>
