<svg width="24" height="24" viewBox="0 0 24 24" fill="none" xmlns="http://www.w3.org/2000/svg">
<g clip-path="url(#clip0_201_420)">
<path d="M0.899902 12.1261C0.899902 16.3613 3.34372 20.0989 6.68325 21.9345C7.84435 22.587 8.80639 21.0389 7.52366 20.298C4.74809 18.7498 2.79083 15.6757 2.79083 12.1261C2.79083 6.90672 6.94864 2.72678 12.168 2.72678C17.3875 2.72678 21.5784 6.90672 21.5784 12.1261C21.5784 12.7896 22.0871 13.1103 22.5737 13.1103C23.027 13.1103 23.4582 12.7785 23.4582 12.1261C23.4582 5.95573 18.3384 0.846924 12.168 0.846924C6.00871 0.846924 0.899902 5.95573 0.899902 12.1261ZM5.36735 12.1261C5.36735 14.5921 6.71642 16.6599 8.33089 17.6994C9.44775 18.4513 10.4098 16.9585 9.46987 16.3171C8.09868 15.4214 7.19192 13.8843 7.19192 12.1261C7.19192 9.33949 9.40352 7.12788 12.168 7.12788C14.9325 7.12788 17.0667 9.32843 17.1663 12.1261C17.1884 12.6348 17.5754 13.0328 18.084 13.0328C18.5927 13.0328 18.9909 12.6348 18.9909 12.1261C18.9909 8.38849 15.9056 5.3033 12.168 5.3033C8.45254 5.3033 5.36735 8.38849 5.36735 12.1261ZM11.7478 20.1321C11.7368 20.5634 12.2454 20.7072 12.5219 20.4307L14.2138 18.7388L16.1047 23.4053C16.1931 23.6154 16.4143 23.715 16.6133 23.6375L17.7081 23.1952C17.9071 23.1067 17.9846 22.8745 17.885 22.6644L15.9056 18.0643L18.2831 17.9758C18.7033 17.9537 18.9023 17.5445 18.6038 17.2349L12.5661 11.0203C12.2786 10.7328 11.8584 10.8986 11.8474 11.3078L11.7478 20.1321Z" fill="#42159D"/>
</g>
<defs>
<clipPath id="clip0_201_420">
<rect width="24" height="24" fill="white"/>
</clipPath>
</defs>
</svg>
