<svg width="18" height="22" viewBox="0 0 18 22" fill="none" xmlns="http://www.w3.org/2000/svg">
<path d="M17.1229 13.1093V5.42515C17.1229 4.37046 16.6709 4.02895 15.8171 3.67738C14.6318 3.19524 10.8049 1.73877 9.6196 1.39725C9.34831 1.32694 9.05705 1.24658 8.77581 1.24658C8.49456 1.24658 8.20326 1.30685 7.9421 1.39725C6.74679 1.80908 2.91978 3.1852 1.73452 3.67738C0.890764 4.039 0.428711 4.37046 0.428711 5.42515V13.1093C0.428711 16.7756 2.38742 18.1316 8.10281 21.3359C8.36398 21.4765 8.61509 21.5368 8.77581 21.5368C8.93652 21.5368 9.19771 21.4765 9.44877 21.3359C15.1542 18.1216 17.1229 16.7756 17.1229 13.1093ZM8.56487 19.6785C8.44433 19.6483 8.31376 19.578 8.15304 19.4776C3.52246 16.6551 2.02581 15.8414 2.02581 12.7376V5.73654C2.02581 5.39502 2.08607 5.2544 2.36733 5.15395C3.92424 4.62158 6.85728 3.55685 8.37402 2.95417C8.45438 2.92403 8.51465 2.90395 8.56487 2.8939V19.6785Z" fill="#42159D"/>
</svg>
