<svg width="24" height="20" viewBox="0 0 24 20" fill="none" xmlns="http://www.w3.org/2000/svg">
<path d="M2.58189 16.7518H21.3754C22.9935 16.7518 23.8074 15.9853 23.8074 14.3198V3.47525C23.8074 1.81923 22.9935 1.05273 21.3754 1.05273H2.58189C0.963716 1.05273 0.149902 1.81923 0.149902 3.47525V14.3198C0.149902 15.9853 0.963716 16.7518 2.58189 16.7518ZM7.21875 19.9598H16.7385C17.1549 19.9598 17.505 19.6191 17.505 19.1932C17.505 18.7674 17.1549 18.4267 16.7385 18.4267H7.21875C6.80237 18.4267 6.45224 18.7674 6.45224 19.1932C6.45224 19.6191 6.80237 19.9598 7.21875 19.9598ZM12.4707 12.8247C12.2625 12.8247 12.13 12.7017 12.1017 12.5029C11.6853 9.65455 11.3162 9.02057 8.32591 8.71776C8.12719 8.68933 8.00417 8.54737 8.00417 8.35815C8.00417 8.17835 8.12719 8.02694 8.32591 7.99856C11.3067 7.60111 11.5622 7.08065 12.1017 4.20391C12.149 4.01464 12.2814 3.89163 12.4707 3.89163C12.6505 3.89163 12.7924 4.02411 12.8208 4.21337C13.2467 7.03333 13.6346 7.60111 16.606 7.99856C16.7953 8.02694 16.9277 8.17835 16.9277 8.35815C16.9277 8.54737 16.7953 8.68933 16.606 8.71776C13.6252 9.11521 13.3602 9.65455 12.8208 12.5124C12.7829 12.7017 12.6505 12.8247 12.4707 12.8247ZM8.62873 14.4239C8.47732 14.4239 8.40166 14.3198 8.35433 14.1684C8.07041 12.7773 8.19343 12.7111 6.66043 12.484C6.49956 12.4556 6.41439 12.361 6.41439 12.2096C6.41439 12.0771 6.49956 11.9635 6.6415 11.9446C8.19343 11.6891 8.07041 11.6228 8.35433 10.2413C8.40166 10.0899 8.48677 9.98579 8.62873 9.98579C8.77069 9.98579 8.86532 10.0993 8.90312 10.2413C9.16814 11.6228 9.0735 11.6891 10.6254 11.9446C10.7579 11.9635 10.8525 12.0771 10.8525 12.2096C10.8525 12.3421 10.7579 12.4556 10.6254 12.484C9.0735 12.7111 9.16814 12.7773 8.90312 14.1968C8.86532 14.3293 8.76124 14.4239 8.62873 14.4239Z" fill="#42159D"/>
</svg>
