<svg width="24" height="24" viewBox="0 0 24 24" fill="none" xmlns="http://www.w3.org/2000/svg">
<path d="M13.0303 3.91095C13.4882 3.91095 13.8365 3.56257 13.8365 3.10471C13.8365 2.6568 13.4882 2.30842 13.0303 2.30842H5.74431L7.32693 3.91095H13.0303ZM15.8273 6.75768C16.2752 6.75768 16.6335 6.39935 16.6335 5.94148C16.6335 5.49357 16.2752 5.15515 15.8273 5.15515H8.52136L10.104 6.75768H15.8273ZM18.5645 9.59445C19.0125 9.59445 19.3609 9.23612 19.3609 8.77826C19.3609 8.33034 19.0125 7.99192 18.5645 7.99192H11.2984L12.881 9.59445H18.5645ZM21.3317 10.8287H14.0755C14.6727 11.4359 14.9414 11.8041 14.9812 12.4312H21.3317C21.7795 12.4312 22.1379 12.0828 22.1379 11.625C22.1379 11.1771 21.7795 10.8287 21.3317 10.8287ZM12.1245 20.6629L8.55122 12.3118L8.07345 13.128L13.0303 13.4067C13.6972 13.4465 14.0158 12.7298 13.538 12.2421L3.68392 2.16907C3.24596 1.72116 2.56911 1.97 2.56911 2.59707L2.3999 16.6118C2.3999 17.2985 3.16633 17.5773 3.60429 17.0696L6.80935 13.5261L5.88366 13.2872L9.33756 21.8274C9.4769 22.1658 9.82528 22.3251 10.1338 22.1858L11.8459 21.479C12.1644 21.3596 12.2739 20.9913 12.1245 20.6629Z" fill="#42159D"/>
</svg>
