<svg width="24" height="24" viewBox="0 0 24 24" fill="none" xmlns="http://www.w3.org/2000/svg">
<path d="M2.3999 13.0186V14.4401C2.3999 16.3052 3.34153 17.2469 5.2429 17.2469H7.53359V15.7892H5.261C4.35559 15.7892 3.85762 15.3003 3.85762 14.3586V13.0186H2.3999ZM3.85762 11.7782V7.66764H2.3999V11.7782H3.85762ZM3.85762 6.43628V5.35884C3.85762 4.41722 4.35559 3.9283 5.261 3.9283H6.57385V2.47058H5.2429C3.34153 2.47058 2.3999 3.41221 2.3999 5.27736V6.43628H3.85762ZM11.9158 2.47058H7.80521V3.9283H11.9158V2.47058ZM13.1472 3.9283H14.3061C15.2024 3.9283 15.7095 4.41722 15.7095 5.35884V7.3417H17.1672V5.27736C17.1672 3.41221 16.2165 2.47058 14.3332 2.47058H13.1472V3.9283ZM21.5584 16.4773V9.46943C21.5584 7.60427 20.6077 6.66264 18.7245 6.66264H9.63414C7.73278 6.66264 6.79115 7.59521 6.79115 9.46943V18.6322C6.79115 20.4973 7.73278 21.439 9.63414 21.439H14.1974V19.9813H9.65225C8.75589 19.9813 8.24886 19.4923 8.24886 18.5507V9.55094C8.24886 8.60927 8.75589 8.12035 9.65225 8.12035H18.6974C19.5937 8.12035 20.1007 8.60927 20.1007 9.55094V15.0106L21.5584 16.4773ZM15.0123 19.8002C15.0032 20.1533 15.4198 20.2619 15.6461 20.0446L17.0314 18.6593L18.5796 22.4802C18.6521 22.6522 18.8331 22.7337 18.9961 22.6703L19.9015 22.3082C20.0555 22.2357 20.1279 22.0456 20.0373 21.8736L18.4167 18.1071L20.3723 18.0346C20.7073 18.0165 20.8794 17.6815 20.6349 17.428L15.6823 12.3396C15.4559 12.1041 15.1028 12.24 15.0938 12.575L15.0123 19.8002Z" fill="#42159D"/>
</svg>
